<?xml version="1.0" encoding="UTF-8"?>
<svg id="Layer_1" xmlns="http://www.w3.org/2000/svg" version="1.1" viewBox="0 0 512 512">
  <!-- Generator: Adobe Illustrator 29.4.0, SVG Export Plug-In . SVG Version: 2.1.0 Build 152)  -->
  <path d="M370.31,426.85c29.06,0,55.39-11.79,74.44-30.84,19.05-19.05,30.84-45.36,30.84-74.44s-11.79-55.39-30.84-74.44c-19.05-19.05-45.36-30.84-74.44-30.84s-55.39,11.79-74.44,30.84c-19.05,19.05-30.84,45.36-30.84,74.44s11.79,55.39,30.84,74.44c19.05,19.05,45.36,30.84,74.44,30.84ZM351.28,449.45l-55.74,42.67c-17.31,13.26-37.59,19.88-57.9,19.88s-40.56-6.63-57.9-19.88l-101.97-78.05c-10.63-8.14-19.07-17.72-25.23-28.63-6.18-10.95-10.07-23.13-11.56-36.42L13.7,106.33c-1.55-13.83-.31-27.1,3.67-39.63,3.98-12.48,10.67-24.05,19.99-34.47,9.34-10.44,20.07-18.38,32-23.72C81.37,3.16,94.45.43,108.36.43h258.5c13.93,0,27,2.73,38.99,8.1,11.95,5.34,22.68,13.28,32.02,23.72,9.32,10.42,16.01,21.99,19.99,34.47,4,12.5,5.24,25.78,3.67,39.63l-12.67,112.66c4.49,3.45,8.77,7.2,12.77,11.2,23.39,23.39,37.85,55.7,37.85,91.39s-14.48,67.99-37.85,91.39c-23.39,23.39-55.7,37.85-91.39,37.85-6.47,0-12.81-.47-19.01-1.39l.04.02Z"/>
  <path d="M307.85,334.16c-6.3-6.3-6.3-16.47,0-22.77,6.3-6.3,16.47-6.3,22.77,0l31.71,31.71,61.17-61.14c6.3-6.3,16.47-6.3,22.77,0,6.3,6.3,6.3,16.47,0,22.77l-72.54,72.54c-6.3,6.3-16.47,6.3-22.77,0l-43.11-43.11Z"/>
</svg>